<?xml version="1.0" encoding="utf-8"?>
<!-- Generator: Adobe Illustrator 23.0.6, SVG Export Plug-In . SVG Version: 6.00 Build 0)  -->
<svg version="1.1"
	 id="svg8" xmlns:cc="http://creativecommons.org/ns#" xmlns:dc="http://purl.org/dc/elements/1.1/" xmlns:inkscape="http://www.inkscape.org/namespaces/inkscape" xmlns:rdf="http://www.w3.org/1999/02/22-rdf-syntax-ns#" xmlns:sodipodi="http://sodipodi.sourceforge.net/DTD/sodipodi-0.dtd" xmlns:svg="http://www.w3.org/2000/svg"
	 xmlns="http://www.w3.org/2000/svg" xmlns:xlink="http://www.w3.org/1999/xlink" x="0px" y="0px" viewBox="0 0 841.9 595.3"
	 style="enable-background:new 0 0 841.9 595.3;" xml:space="preserve">
<style type="text/css">
	.st0{fill:#CDD2D6;}
	.st1{fill:#EDCBA8;}
	.st2{fill:#A4A9AE;}
	.st3{fill:#EE9139;}
	.st4{fill:#D29746;}
	.st5{fill:#7C8388;}
	.st6{fill:#525A62;}
</style>
<sodipodi:namedview  bordercolor="#666666" borderopacity="1.0" id="base" inkscape:current-layer="layer1" inkscape:cx="-28.571429" inkscape:cy="560" inkscape:document-units="mm" inkscape:pageopacity="0.0" inkscape:pageshadow="2" inkscape:window-height="987" inkscape:window-maximized="1" inkscape:window-width="1680" inkscape:window-x="110" inkscape:window-y="1072" inkscape:zoom="0.35" pagecolor="#ffffff" showgrid="false">
	</sodipodi:namedview>
<g id="layer1" transform="translate(0,-87)" inkscape:groupmode="layer" inkscape:label="Layer 1">
	<g id="g100" transform="matrix(0.77899941,0,0,0.77899941,296.0971,191.45585)">
		<path id="path114" inkscape:connector-curvature="0" class="st0" d="M-164.5,463c-54.6-3-105.7-25.9-143.7-64.5
			c-15.6-15.9-25.8-29.3-35.9-47.1c-5.1-9.1-6.5-12.3-5.6-13.2c0.4-0.4,11-6.3,23.5-13.2c12.6-6.9,22.9-12.5,23-12.6
			c0.2-0.1-4.2-10.5-4.6-10.8c-0.2-0.2-10.5,5.3-23,12.1c-12.5,6.8-23.3,12.6-23.9,12.8c-0.9,0.4-1.8-1.1-3.9-6.9
			c-8.7-23.6-12.3-43.3-13.1-70c-0.8-29.8,3.5-55.6,13.6-82.5c11.4-30.3,26.9-54.2,50.2-77.5c17.4-17.4,36-30.9,57-41.3
			c33.9-16.7,65.9-23.7,103.2-22.7c8.9,0.2,19.7,0.9,24,1.6C-90.2,32-58.6,44-31.3,62.2c22.6,15.1,44.5,37,59.9,60
			c4.3,6.4,12.8,20.5,12.5,20.8c-0.1,0.1-10.9,5.7-24.1,12.6c-13.2,6.9-24.1,12.6-24.2,12.8c-0.1,0.1,1,2.6,2.5,5.6l2.7,5.3
			l10.7-5.6c5.9-3.1,16.5-8.6,23.7-12.4s13.3-6.8,13.7-6.8c0.9,0,1.9,2.1,5.9,12.6c6.4,16.9,10.1,32.2,12.5,51.4
			c1.5,11.9,1.7,37.9,0.4,48.9c-6.3,52.2-27.2,95.8-63.2,131.7c-35.8,35.7-80.5,57.2-130.7,62.8C-137.1,462.8-156.9,463.4-164.5,463
			L-164.5,463z M288.5,357.3c-16.9-2.4-28.4-7.6-39.9-17.9c-4-3.6-10.6-11.9-13.7-17.3c-2.9-5-6.6-14.7-8.1-21
			c-2.2-9.4-1.8-26.2,0.7-35.8c6.5-24.4,23.5-42.3,47.4-49.8c6.3-2,7.6-2.1,19.9-2.1c13.9,0,17.6,0.6,27.1,4.4
			c7.6,3.1,12.8,6.6,19.4,13.2c5.6,5.7,12,14.8,12.9,18.6c0.2,0.7-3.1,2.1-11,4.7c-6.2,2-11.6,3.7-12.1,3.7c-0.5,0-2.2-2.2-4-4.8
			c-6.9-10.7-18.8-16.9-32.1-16.9c-12.2,0-21.6,3.9-30.3,12.7c-9.5,9.6-13.7,20.3-13.7,35.3c0,14.5,4.4,26.4,13.5,36.1
			c11.2,11.8,25.7,16.3,40.6,12.4c10.8-2.8,21.4-10.7,23.9-17.9c0.8-2.2,1.7-3.6,2.4-3.6c1.3,0,23.3,6.6,23.9,7.1
			c0.7,0.7-5.2,11.9-8.5,16.1c-7.4,9.5-21,17.8-34.1,21C306.8,356.9,293.2,357.9,288.5,357.3L288.5,357.3z M495.9,357.2
			c-23.4-2.4-43.9-17-54.7-38.9c-6.4-13-8.9-26.7-7.4-41.1c2.7-26.2,17.6-47.6,40.6-58.2c10.8-5,14.4-5.7,28.8-5.7
			c11.1,0,13.5,0.2,18.8,1.7c23.2,6.7,40.9,24.8,48,49.3c2.3,7.7,3.4,25.3,2,29.1l-0.8,2.1h-55.6h-55.6l0.5,2.8
			c3,16.7,17.2,32.3,33.3,36.6c5.3,1.4,15,1.4,20.6,0c11.4-2.9,22-10.6,25.9-18.9c1-2.1,2.2-3.9,2.5-3.9c1.3-0.1,21,5.4,21.6,6
			c0.9,0.8-3.4,9.6-7.2,14.7c-5.9,7.8-17.5,16.4-26.7,19.9C519.3,356.7,507.1,358.4,495.9,357.2L495.9,357.2z M547.2,272
			c-4-17.8-16.2-31.7-32.1-36.2c-6.1-1.7-17.3-1.8-23.2,0c-14.8,4.4-26.2,15.9-30.7,31.1c-2.3,7.6-7.2,6.8,42.6,6.8h43.8L547.2,272z
			 M628,356.9c-12.5-1.4-25.8-5.7-35.1-11.3c-5.6-3.4-14.6-10.3-14.6-11.2c0-0.4,9.2-14.4,11.7-17.8c0.1-0.1,3.1,1.9,6.7,4.6
			c13.1,9.8,24.2,14,39,14.6c13.5,0.5,21.5-1.4,27.9-6.9c5.1-4.3,7.2-14.5,4-19.6c-3.5-5.8-9.5-8.4-31.8-14.1
			c-27.4-7-34.9-10-42.2-17.2c-6.4-6.3-8-10.7-8-21.5c0-9.4,1.7-15.5,6-22.2c5.8-9,16.3-16.1,28.6-19.6c7.6-2.1,30.3-1.9,39,0.4
			c9.9,2.6,20.7,8.3,27.2,14.3l5.4,5.1l-6.6,8c-3.6,4.4-6.8,8-7,8s-2.4-1.9-4.9-4.2c-4.9-4.6-11.9-8.3-19.3-10.5
			c-3.8-1.1-7.2-1.4-15.8-1.4c-9.6,0-11.4,0.2-15.2,1.7c-5.4,2.1-8.2,4.5-10.8,9c-2.7,4.6-3,13.1-0.5,16.4
			c2.7,3.7,10.2,6.7,28.6,11.5c21.1,5.4,27.2,7.4,35.1,11.5c14.3,7.4,20.4,19.2,18.4,35.2c-1.8,13.9-9.5,24.4-22.9,31
			C658.4,356.8,644.7,358.8,628,356.9z M392.6,354.8c-6.6-2.3-12.1-6.9-15.2-12.8c-3-5.6-3-6.3-3-94.7l0-85.3h12.8h12.8v81.8
			c0,90.2-0.3,84.8,4.7,87.5c3.5,1.8,10.3,1.5,17.2-0.7c3.2-1,5.8-1.8,5.8-1.7s1,4.8,2.2,10.4c1.2,5.7,2.2,10.6,2.2,10.9
			c0,0.9-8.7,3.8-15.3,5C408.7,356.7,397.6,356.5,392.6,354.8L392.6,354.8z M96.9,285v-69.8h12.8h12.8V285v69.8h-12.8H96.9V285z
			 M151.7,285v-69.8H164h12.4v10.2v10.2l5.9-5.6c10.5-10,20.7-14.8,32.9-15.4c3.8-0.2,7.8-0.1,8.8,0.1l1.9,0.5v11.6v11.6h-4.2
			c-17.4,0-34.1,10-41.5,25l-3.1,6.2v42.5v42.5h-12.8h-12.7L151.7,285z M96.9,178.9V162h12.8h12.8l-0.2,16.7l-0.2,16.7l-12.6,0.2
			l-12.6,0.2L96.9,178.9z"/>
		<path id="path112" inkscape:connector-curvature="0" class="st1" d="M-164.5,463c-54.5-3-105.7-25.9-143.7-64.5
			c-15.6-15.9-25.8-29.3-35.9-47.1c-5.1-9.1-6.5-12.3-5.6-13.1c0.6-0.6,4.9-3,20.9-11.7c2.9-1.6,9.8-5.3,15.3-8.4s10.2-5.5,10.5-5.5
			c0.3,0,2,3.1,4,6.9c16,31.4,43.9,58.1,76.3,73.1c62.6,29,136.9,15.8,185.3-32.7c30.9-31,48-72.3,48-115.8c0-19-2.7-35.4-8.9-53.7
			c-2-6-3.5-11.2-3.2-11.4c0.8-0.8,46.8-24.6,47.5-24.6c0.9,0,2.3,2.9,5.8,12.4c6.4,17.1,10.2,32.7,12.6,51.6
			c1.5,11.9,1.7,37.9,0.4,48.9c-6.3,52.2-27.2,95.8-63.2,131.7c-35.8,35.7-80.5,57.2-130.7,62.8C-137.1,462.8-156.9,463.4-164.5,463
			z M-165.9,396.7c-30.2-2.9-56.4-15.4-80.5-38.6c-36-34.5-54.4-85.4-48.6-134.7c5.5-47,28.5-85.8,65.5-110.5
			c24.6-16.4,50.6-23.7,81.7-22.8c15.5,0.4,27.3,2.3,39.5,6.2c24.8,8,46.7,24.4,61,45.7c3.9,5.9,11.1,20.1,10.2,20.4
			c-0.4,0.1-7.9,4.7-16.7,10.2l-16.1,10l-3.3-6.3c-13.6-26.4-35.1-42-64.7-46.8c-7.2-1.2-25-1.2-32.3,0
			c-18.1,2.9-37.1,12.8-51.1,26.6c-28.7,28.2-40.8,78.6-28.8,120.3c8,27.9,25,52.1,46.4,66.2c16.6,10.9,32,15.7,50.7,15.7
			c23.2,0,42.5-6.6,60.7-20.8c9.7-7.5,17.4-17.2,23.9-29.8l2.8-5.5l10.9,5.7c6,3.1,13.8,7.2,17.4,9.1l6.5,3.5l-3.2,7.1
			c-4.9,10.6-11.2,19.7-19.6,28.1c-25.6,25.7-58.7,39.8-96.3,41.2C-155,397.2-162.2,397.1-165.9,396.7L-165.9,396.7z M286.3,356.9
			c-14.9-1.9-28.1-8.4-39.2-19.4c-11.1-10.9-17.9-24.4-20.8-40.8c-3.2-18.8,1.2-38.8,12.3-55.1c4.2-6.2,14.6-15.7,21.3-19.5
			c11.1-6.3,21.9-9.1,35.7-9.1c16,0,27.9,3.7,39.6,12.5c7.2,5.4,12,11.1,17.4,20.6l2.4,4.3l-11.8,3.8c-6.5,2.1-12,3.8-12.3,3.8
			c-0.3,0-1.7-2-3.2-4.4c-6.8-11-18.9-17.3-33.1-17.3c-7.5,0-13.4,1.5-20,5.1c-25.6,13.8-31.6,52.4-12.1,76.9
			c4,5.1,12.2,11.1,18,13.2c18.9,7.1,42.6-1.3,49.3-17.4c0.6-1.5,1.4-2.8,1.8-2.8c0.8,0,23.7,6.8,24,7.2c0.1,0.1-1.1,3.1-2.8,6.7
			c-2.2,4.5-4.6,8-8.1,11.7c-10.7,11.3-22.4,17.4-38.4,19.8C298.3,357.8,294.2,357.9,286.3,356.9z M494.1,356.9
			c-19.7-2.7-37.8-14.3-48.7-31.3c-16.4-25.4-15.8-59.4,1.4-83.8c4.5-6.3,14.2-15.3,20.5-19.1c12.5-7.4,23.8-10.2,39.1-9.6
			c11.3,0.5,17,1.8,26.2,6.2c18.2,8.6,32.3,26.1,37.6,46.6c1.8,7,2.8,24.3,1.6,27.5l-0.8,2.1h-55.5c-47,0-55.5,0.2-55.5,1
			c0,0.6,0.7,3.4,1.6,6.2c4.8,15.7,17.3,28.3,31.8,32.1c5.7,1.5,15.8,1.5,21.4,0c11.2-2.9,20.8-9.9,25.3-18.3
			c1.3-2.5,2.6-4.5,2.8-4.5c1.1,0,20.9,5.6,21.5,6c0.9,0.7-4.2,10.7-7.6,14.9c-9,11.2-21.7,19.1-36.3,22.6
			C513,357.2,501.2,357.9,494.1,356.9L494.1,356.9z M546.5,269.1c-3.6-15.2-15.5-28.2-30.3-33c-7.5-2.4-18.8-2.2-26.5,0.4
			c-10.3,3.5-18.4,9.9-23.6,18.6c-2.7,4.6-5.1,10.9-5.9,15.5l-0.5,3.1h43.9h43.9L546.5,269.1z M630.5,357.2
			c-18.8-1.7-35.9-8.8-49.8-20.7l-2.4-2.1l5.5-8.3c3-4.6,5.7-8.6,6-9c0.3-0.4,3.5,1.5,7.1,4.2c7.6,5.7,17.9,11,25,13
			c3.8,1,7.6,1.3,16.9,1.3c10.6,0,12.5-0.2,16.2-1.7c5.8-2.3,8.8-4.5,11.5-8.2c1.9-2.7,2.3-4.1,2.5-8.8c0.2-4.9,0.1-5.9-1.4-8.1
			c-3.7-5.5-9.6-8-32.8-14c-26.1-6.8-33.9-9.9-40.7-16.3c-6.7-6.2-9.6-15.8-8.2-26.9c2.3-18.2,13.8-30.5,33.7-36.3
			c8.4-2.4,25.6-2.9,35.2-0.9c13.6,2.8,26,9.1,33.6,16.9l3.3,3.4l-5.8,7c-3.2,3.9-6.2,7.4-6.7,8c-0.7,0.8-1.6,0.3-4.2-2.2
			c-9.7-9-21.5-13.4-36.3-13.4c-14.3,0-22.6,3.6-26.8,11.6c-2.2,4.2-2.3,12.9-0.1,15.9c2.6,3.6,11.2,7.2,25.3,10.7
			c33.4,8.2,45,13.5,51.9,23.5c3.5,5.2,5.1,10.8,5.2,18.2c0,12.1-3.1,19.8-11.4,28.1c-3.7,3.8-7.4,6.6-10.9,8.4
			C660.9,356,645.5,358.6,630.5,357.2z M393.9,355.1c-1.9-0.5-4.5-1.5-5.8-2.2c-4.1-2.1-9.8-8.6-11.6-13.1l-1.7-4.2l-0.2-86.8
			l-0.2-86.8l12.6,0.2l12.6,0.2l0.4,82.3c0.4,82.1,0.4,82.3,1.9,84.4c3.2,4.3,12.5,4.8,22,1c2.1-0.8,3.8-1.3,3.8-1.1
			c0,0.2,1,4.9,2.2,10.6c1.2,5.6,2.1,10.5,1.8,10.9c-0.6,0.9-11.6,4.3-17,5.2C408.5,356.5,398.1,356.3,393.9,355.1L393.9,355.1z
			 M96.9,285v-69.8h12.8h12.8V285v69.8h-12.8H96.9V285z M151.7,285v-69.8H164h12.4v10.3v10.3l5.8-5.6c10.2-9.8,21.1-14.9,33.3-15.6
			c3.6-0.2,7.4-0.1,8.5,0.1l1.9,0.5l-0.2,11.4l-0.2,11.4l-6,0.5c-8.5,0.7-12.6,1.8-19.8,5.3c-8.6,4.2-15.2,10.8-19.5,19.3l-3.1,6.2
			v42.7v42.7h-12.8h-12.7L151.7,285z M-358.5,319.7c-8.7-23.6-12.3-43.3-13.1-69.9c-0.8-29.8,3.5-55.6,13.6-82.5
			c11.4-30.3,26.9-54.2,50.2-77.5c17.4-17.4,36-30.9,57-41.3c33.9-16.7,65.9-23.7,103.2-22.7c8.9,0.2,19.7,0.9,24,1.6
			c39.5,5.6,76.1,21.2,106.5,45.3c10.2,8.1,27.7,25.5,34.8,34.6c10.5,13.4,23.4,33.7,22.7,35.6c-0.3,0.7-45.3,24.5-47.3,25
			c-0.5,0.1-1.8-1.6-3-3.8c-12.1-22.5-33.9-45.3-56.9-59.6c-26.1-16.2-54.8-24.4-85.6-24.5c-20.2-0.1-34.7,2.2-52.9,8.2
			c-53.1,17.6-94.3,62.3-107.5,116.5c-3.4,13.9-4.4,23.2-4.4,39c0,19.4,2.3,34.8,7.8,50.9c1.2,3.5,2.1,6.4,2,6.5
			c-0.1,0.1-6.8,3.7-14.8,8.1c-8,4.4-18.7,10.1-23.6,12.8c-5,2.7-9.2,4.9-9.4,4.9C-355.6,327-357.1,323.7-358.5,319.7L-358.5,319.7z
			 M97.4,195.2c-0.3-0.3-0.5-7.9-0.5-16.9v-16.4l12.6,0.2l12.6,0.2v16.5v16.5l-12,0.2C103.4,195.7,97.7,195.5,97.4,195.2z"/>
		<path id="path110" inkscape:connector-curvature="0" class="st2" d="M-163.7,462.6c-28.4-1.3-55.8-8-82.1-20.3
			c-41.1-19.2-76.5-52.3-98.8-92.4c-2.5-4.5-4.7-8.9-4.8-9.7c-0.2-1.2,3.8-3.6,22.3-13.8c12.4-6.8,23-12.5,23.6-12.7
			c0.8-0.2,2.1,1.6,4.4,6.2c1.8,3.6,5.6,9.9,8.3,14.1c28.8,43.7,76.5,71.2,127.9,73.8c29.9,1.5,55.5-3.6,81.7-16.4
			C-35,369-1.8,325.8,8,275.6c4.1-21.3,3.8-45.9-1-67.9c-1.3-5.9-6.5-22.3-8.6-27.2c-0.4-0.8-0.2-1.3,0.3-1.3c0.5,0,8.5-4,17.9-8.9
			C46.3,154.8,46,155,46.8,155.8c1.3,1.3,7.9,19.3,10.7,29c10.9,38,10.7,82.4-0.4,120.1c-10.7,36.3-29.9,68.7-56.3,94.6
			C-43.7,443.3-101.4,465.4-163.7,462.6z M-165.9,396.7c-30.2-2.9-56.4-15.4-80.5-38.6c-36-34.5-54.4-85.4-48.6-134.7
			c5.5-47,28.5-85.8,65.5-110.5c24.6-16.4,50.6-23.7,81.7-22.8c15.5,0.4,27.3,2.3,39.5,6.2c24.8,8,46.7,24.4,61,45.7
			c3.9,5.9,11.1,20.1,10.2,20.4c-0.4,0.1-7.9,4.7-16.7,10.2l-16.1,10l-3.3-6.3c-13.6-26.4-35.1-42-64.7-46.8c-7.2-1.2-25-1.2-32.3,0
			c-18.1,2.9-37.1,12.8-51.1,26.6c-28.7,28.2-40.8,78.6-28.8,120.3c8,27.9,25,52.1,46.4,66.2c16.6,10.9,32,15.7,50.7,15.7
			c23.2,0,42.5-6.6,60.7-20.8c9.7-7.5,17.4-17.2,23.9-29.8l2.8-5.5l10.9,5.7c6,3.1,13.8,7.2,17.4,9.1l6.5,3.5l-3.2,7.1
			c-4.9,10.6-11.2,19.7-19.6,28.1c-25.6,25.7-58.7,39.8-96.3,41.2C-155,397.2-162.2,397.1-165.9,396.7L-165.9,396.7z M286.3,356.9
			c-14.9-1.9-28.1-8.4-39.2-19.4c-11.1-10.9-17.9-24.4-20.8-40.8c-3.2-18.8,1.2-38.8,12.3-55.1c4.2-6.2,14.6-15.7,21.3-19.5
			c11.1-6.3,21.9-9.1,35.7-9.1c16,0,27.9,3.7,39.6,12.5c7.2,5.4,12,11.1,17.4,20.6l2.4,4.3l-11.8,3.8c-6.5,2.1-12,3.8-12.3,3.8
			c-0.3,0-1.7-2-3.2-4.4c-6.8-11-18.9-17.3-33.1-17.3c-7.5,0-13.4,1.5-20,5.1c-25.6,13.8-31.6,52.4-12.1,76.9
			c4,5.1,12.2,11.1,18,13.2c18.9,7.1,42.6-1.3,49.3-17.4c0.6-1.5,1.4-2.8,1.8-2.8c0.8,0,23.7,6.8,24,7.2c0.1,0.1-1.1,3.1-2.8,6.7
			c-2.2,4.5-4.6,8-8.1,11.7c-10.7,11.3-22.4,17.4-38.4,19.8C298.3,357.8,294.2,357.9,286.3,356.9L286.3,356.9z M494.1,356.9
			c-19.7-2.7-37.8-14.3-48.7-31.3c-16.4-25.4-15.8-59.4,1.4-83.8c4.5-6.3,14.2-15.3,20.5-19.1c12.5-7.4,23.8-10.2,39.1-9.6
			c11.3,0.5,17,1.8,26.2,6.2c18.2,8.6,32.3,26.1,37.6,46.6c1.8,7,2.8,24.3,1.6,27.5l-0.8,2.1h-55.5c-47,0-55.5,0.2-55.5,1
			c0,0.6,0.7,3.4,1.6,6.2c4.8,15.7,17.3,28.3,31.8,32.1c5.7,1.5,15.8,1.5,21.4,0c11.2-2.9,20.8-9.9,25.3-18.3
			c1.3-2.5,2.6-4.5,2.8-4.5c1.1,0,20.9,5.6,21.5,6c0.9,0.7-4.2,10.7-7.6,14.9c-9,11.2-21.7,19.1-36.3,22.6
			C513,357.2,501.2,357.9,494.1,356.9L494.1,356.9z M546.5,269.1c-3.6-15.2-15.5-28.2-30.3-33c-7.5-2.4-18.8-2.2-26.5,0.4
			c-10.3,3.5-18.4,9.9-23.6,18.6c-2.7,4.6-5.1,10.9-5.9,15.5l-0.5,3.1h43.9h43.9L546.5,269.1z M630.5,357.2
			c-18.8-1.7-35.9-8.8-49.8-20.7l-2.4-2.1l5.5-8.3c3-4.6,5.7-8.6,6-9c0.3-0.4,3.5,1.5,7.1,4.2c7.6,5.7,17.9,11,25,13
			c3.8,1,7.6,1.3,16.9,1.3c10.6,0,12.5-0.2,16.2-1.7c5.8-2.3,8.8-4.5,11.5-8.2c1.9-2.7,2.3-4.1,2.5-8.8c0.2-4.9,0.1-5.9-1.4-8.1
			c-3.7-5.5-9.6-8-32.8-14c-26.1-6.8-33.9-9.9-40.7-16.3c-6.7-6.2-9.6-15.8-8.2-26.9c2.3-18.2,13.8-30.5,33.7-36.3
			c8.4-2.4,25.6-2.9,35.2-0.9c13.6,2.8,26,9.1,33.6,16.9l3.3,3.4l-5.8,7c-3.2,3.9-6.2,7.4-6.7,8c-0.7,0.8-1.6,0.3-4.2-2.2
			c-9.7-9-21.5-13.4-36.3-13.4c-14.3,0-22.6,3.6-26.8,11.6c-2.2,4.2-2.3,12.9-0.1,15.9c2.6,3.6,11.2,7.2,25.3,10.7
			c33.4,8.2,45,13.5,51.9,23.5c3.5,5.2,5.1,10.8,5.2,18.2c0,12.1-3.1,19.8-11.4,28.1c-3.7,3.8-7.4,6.6-10.9,8.4
			C660.9,356,645.5,358.6,630.5,357.2z M393.9,355.1c-1.9-0.5-4.5-1.5-5.8-2.2c-4.1-2.1-9.8-8.6-11.6-13.1l-1.7-4.2l-0.2-86.8
			l-0.2-86.8l12.6,0.2l12.6,0.2l0.4,82.3c0.4,82.1,0.4,82.3,1.9,84.4c3.2,4.3,12.5,4.8,22,1c2.1-0.8,3.8-1.3,3.8-1.1
			c0,0.2,1,4.9,2.2,10.6c1.2,5.6,2.1,10.5,1.8,10.9c-0.6,0.9-11.6,4.3-17,5.2C408.5,356.5,398.1,356.3,393.9,355.1L393.9,355.1z
			 M96.9,285v-69.8h12.8h12.8V285v69.8h-12.8H96.9V285z M151.7,285v-69.8H164h12.4v10.3v10.3l5.8-5.6c10.2-9.8,21.1-14.9,33.3-15.6
			c3.6-0.2,7.4-0.1,8.5,0.1l1.9,0.5l-0.2,11.4l-0.2,11.4l-6,0.5c-8.5,0.7-12.6,1.8-19.8,5.3c-8.6,4.2-15.2,10.8-19.5,19.3l-3.1,6.2
			v42.7v42.7h-12.8h-12.7L151.7,285z M-358.5,318.9c-8.8-24-12.9-47.5-12.9-74.5c0-36.2,6.9-65.6,22.8-97.9
			c20.8-42.1,55.8-77.1,97.9-97.9c32.3-15.9,61.8-22.8,97.9-22.8c27.6,0,50,4,75.4,13.2C-47,50.3-21.1,66.9,2,90.3
			c13.1,13.2,26.4,30.4,33.8,43.6c1.2,2.1,2.7,4.8,3.5,6.1l1.4,2.4l-4.7,2.6c-10.5,5.7-42.6,22.3-43.3,22.3c-0.4,0-2.4-3.1-4.6-6.8
			c-14.9-25.8-39.2-48.8-66.5-62.8c-56.1-28.8-122.9-23-174.2,15.1c-9.1,6.8-25.2,22.9-32,32c-31.8,42.9-41.4,97-26.1,147
			c2.7,8.9,2.9,9.8,1.9,9.8c-0.5,0-10.7,5.4-22.8,12s-22.4,12.2-23.1,12.4C-355.6,326.2-356.4,324.7-358.5,318.9L-358.5,318.9z
			 M97.4,195.2c-0.3-0.3-0.5-7.9-0.5-16.9v-16.4l12.6,0.2l12.6,0.2v16.5v16.5l-12,0.2C103.4,195.7,97.7,195.5,97.4,195.2L97.4,195.2
			z"/>
		<path id="path108" inkscape:connector-curvature="0" class="st3" d="M-163.7,462.6c-28.4-1.3-55.8-8-82.1-20.3
			c-41.1-19.2-76.5-52.3-98.8-92.4c-2.5-4.5-4.7-8.9-4.8-9.7c-0.2-1.2,3.8-3.6,22.3-13.8c12.4-6.8,23-12.5,23.6-12.7
			c0.8-0.2,2.1,1.6,4.4,6.2c1.8,3.6,5.6,9.9,8.3,14.1c28.8,43.7,76.5,71.2,127.9,73.8c29.9,1.5,55.5-3.6,81.7-16.4
			C-35,369-1.8,325.8,8,275.6c4.1-21.3,3.8-45.9-1-67.9c-1.3-5.9-6.5-22.3-8.6-27.2c-0.4-0.8-0.2-1.3,0.3-1.3c0.5,0,8.5-4,17.9-8.9
			C46.3,154.8,46,155,46.8,155.8c1.3,1.3,7.9,19.3,10.7,29c10.9,38,10.7,82.4-0.4,120.1c-10.7,36.3-29.9,68.7-56.3,94.6
			C-43.7,443.3-101.4,465.4-163.7,462.6z M-173.5,395.6c-21.1-3.4-40.9-11.9-59-25.7c-26.1-19.7-45.6-47.6-55.4-79.3
			c-5.9-19-7.8-31.2-7.7-49.9c0.1-26.7,5.4-48.5,17.6-72.9c7.4-14.7,16.3-26.7,28.7-38.6c29.4-28.3,67.6-41.9,108.8-38.5
			c24.8,2,42.9,8,61.6,20.3c10.2,6.7,24.2,20.5,30.5,30c4.3,6.5,11.7,20.7,11.1,21.3c-1,0.9-32.3,20.1-32.5,19.9
			c-0.1-0.1-1.9-3.4-3.8-7.3c-4.9-9.6-10.9-17.4-18.3-24c-7.5-6.6-12.3-9.7-21.5-14.1c-16.4-7.8-40.1-10.4-59.7-6.7
			c-40.2,7.7-72.1,43.7-79.8,90.1c-1.6,9.9-2.2,29.7-1.1,38c3.3,25,14.4,49.5,30.6,67.5c7.7,8.5,11.9,12.2,20.1,17.5
			c17.1,11.1,31.5,15.5,51,15.5c15.4,0,29.1-3,42-9.2c18.2-8.8,31.7-21.8,41.6-40.1c1.8-3.3,3.3-6.1,3.4-6.2
			c0.2-0.2,33.3,16.9,34,17.5c0.6,0.6-6.3,14.7-10.2,20.6c-4.8,7.4-17,19.9-26.1,26.7c-20,15.1-41.9,24.1-67.5,27.7
			C-144.4,396.9-165.2,396.9-173.5,395.6L-173.5,395.6z M288.9,356.9c-11.8-1-23.6-5.3-33.3-12.2c-5.7-4.1-14.1-12.8-18.1-18.9
			c-3.5-5.3-8.1-15.6-9.7-21.9c-4.2-16.3-2.5-35.9,4.4-50.9c7-15.1,17.8-26.1,32.8-33.3c8.7-4.2,15.8-5.9,26.2-6.5
			c26.6-1.4,48.3,10,60.2,31.5c1.6,2.8,2.5,5.4,2.2,5.7c-0.8,0.7-22.8,7.8-23.1,7.4c-0.1-0.1-1.1-1.8-2.3-3.6
			c-11.7-19.2-38.1-24.1-57.6-10.8c-6,4.1-10.9,9.8-14.4,16.8c-4.1,8.2-5.2,13.3-5.1,24.7c0,8.9,0.3,10.9,2,16.1
			c6.5,19.6,23.5,33.4,41.4,33.4c14.4,0,31.6-9.6,34.8-19.4c0.6-1.8,1.3-3.4,1.6-3.5c0.3-0.2,5.7,1.2,11.9,3
			c6.3,1.9,11.5,3.4,11.7,3.4c1.5,0-2.3,8.6-6.4,14.5c-3,4.4-11.5,12-16.6,15C318.8,355,304.5,358.2,288.9,356.9L288.9,356.9z
			 M497,357c-24.4-2.1-45.1-16.8-56.2-39.7c-5.6-11.7-6.7-16.9-6.8-32.3c0-14.4,0.8-18.9,5.6-30.1c8.2-19.2,25.6-34.2,45.9-39.7
			c7-1.9,20.9-2.6,28.4-1.5c33.8,5.3,58.5,35.5,58.5,71.7c0,3-0.3,6.4-0.7,7.4l-0.7,1.9h-55.6h-55.6l0.4,3.3
			c0.9,6.9,5.9,16.8,11.9,24c3.9,4.6,12.1,10,18.7,12.2c7.9,2.7,18.1,2.7,26.7,0c10.4-3.3,19-10.1,23.1-18.1
			c1.2-2.3,2.2-4.1,2.2-4.1c0.6,0,21.7,5.9,21.9,6.2c0.2,0.2-1.1,3.1-2.7,6.5c-6.5,13.5-21,24.9-37.7,29.7c-5.6,1.6-8.5,2.1-18.5,3
			C504.2,357.4,500.3,357.2,497,357L497,357z M547.3,272c-2.6-13.1-10.8-25.3-21.3-31.7c-17-10.3-39.3-7.6-53.3,6.3
			c-6.7,6.7-10.6,14.3-13.1,25.7l-0.5,2.1h44.3h44.3L547.3,272z M630.5,356.9c-17.8-1.4-36.9-9-48.2-19.2l-4-3.6l6-8.8l6-8.8
			l6.4,4.8c15.4,11.6,31.4,16.4,48.5,14.5c8.4-0.9,13.6-2.8,17.7-6.4c4.4-3.7,6.3-7.8,6.3-13.4c0.1-10.7-5.2-14-35.2-21.7
			c-31.9-8.2-40.6-12.8-45.9-24.4c-2.3-4.9-3.1-15.9-1.7-22.7c2.5-12,10.5-21.8,22.4-27.8c9.8-4.9,15.9-6.1,30.5-6.1
			c13.2,0,18.6,1,28.9,5.1c6.6,2.7,16.4,9,20.5,13.1l2.8,2.9l-6.6,7.9l-6.6,7.9l-4.5-4.1c-8.9-8-21.2-12.3-35.3-12.3
			c-13.7,0-21.7,3.2-26.3,10.5c-2,3.1-2.2,4.1-2.2,9.7v6.2l3,2.8c3.9,3.6,8.2,5.2,26.9,9.9c27.2,6.9,36.4,10.6,44.2,17.9
			c6.6,6.2,8.9,11.4,9.3,21c0.5,12.2-2.3,20.7-9.5,28.6C672.8,353.1,654.3,358.7,630.5,356.9L630.5,356.9z M394.7,355.2
			c-10.2-3-16.5-9.4-19.2-19.6c-0.8-3-1-20.2-1-88.7l0-84.9h12.4h12.4l0.2,82.1c0.2,81.7,0.2,82.1,1.8,84.2c2.6,3.6,6,4.9,11.5,4.4
			c2.7-0.2,7-1.1,9.6-2c2.6-0.9,4.9-1.5,5.1-1.3c0.2,0.2,1.2,4.3,2.2,9.3c1.1,4.9,2.1,9.5,2.3,10.2
			C433.1,353.1,404.2,358,394.7,355.2L394.7,355.2z M96.9,285v-69.8h12.4h12.4V285v69.8h-12.4H96.9V285z M152.4,285v-69.8h12h12
			v10.6v10.6l3.4-3.8c9.8-10.9,25.1-18.1,38.4-18.1c8.1,0,7.6-0.7,7.6,12.1c0,6.1-0.3,11.2-0.6,11.2c-0.3,0-3.5,0.3-7,0.7
			c-18.5,1.9-32.7,11.8-39.6,27.3c-1.6,3.6-1.6,4.3-1.6,46.3v42.7h-12.4h-12.4V285z M-358.5,318.9c-8.8-24-12.9-47.5-12.9-74.5
			c0-36.2,6.9-65.6,22.8-97.9c20.8-42.1,55.8-77.1,97.9-97.9c32.3-15.9,61.8-22.8,97.9-22.8c27.6,0,50,4,75.4,13.2
			C-47,50.3-21.1,66.9,2,90.3c13.1,13.2,26.4,30.4,33.8,43.6c1.2,2.1,2.7,4.8,3.5,6.1l1.4,2.4l-4.7,2.6
			c-10.5,5.7-42.6,22.3-43.3,22.3c-0.4,0-2.4-3.1-4.6-6.8c-14.9-25.8-39.2-48.8-66.5-62.8c-56.1-28.8-122.9-23-174.2,15.1
			c-9.1,6.8-25.2,22.9-32,32c-31.8,42.9-41.4,97-26.1,147c2.7,8.9,2.9,9.8,1.9,9.8c-0.5,0-10.7,5.4-22.8,12s-22.4,12.2-23.1,12.4
			C-355.6,326.2-356.4,324.7-358.5,318.9L-358.5,318.9z M97.1,178.7l0.2-16.3l12.2-0.2l12.2-0.2v16.5V195h-12.4H96.9L97.1,178.7z"/>
		<path id="path106" inkscape:connector-curvature="0" class="st4" d="M-136.5,462.2c0.5-0.2,1.2-0.2,1.4,0.1c0.2,0.2-0.2,0.4-1,0.4
			C-136.9,462.6-137.1,462.4-136.5,462.2L-136.5,462.2z M-157.7,437.4c-35.6-1.3-65.6-10.1-95.3-27.8
			c-18.8-11.2-38.4-28.5-51.8-45.5c-5.4-6.9-16-23.3-19.8-30.6c-2.9-5.5-3.2-6.6-2.3-7.3c2-1.3,2.6-0.8,5.2,4.3
			c4.6,8.9,11.5,19.8,17.3,27.6c7.3,9.7,23.1,26,32.6,33.6c26.5,21.2,57.8,34.9,91.5,40c12.6,1.9,42.1,1.9,54.4,0
			c27.9-4.3,54.7-14.5,77.2-29.4c7.9-5.2,23.9-18.4,30.6-25.2c6.8-7,18.1-20.9,23.1-28.5c14.8-22.5,25-49.3,29.4-77.2
			c1.9-12.3,1.9-41.8,0-54.4c-2.4-15.4-6.5-30.4-12.3-45.1l-1.5-3.8l1.8-0.8c1.7-0.8,1.9-0.6,4.8,6.8c8.8,22.5,12.9,45.2,12.9,70.6
			c0,42.3-13.3,81.7-39.1,116.4c-6.9,9.3-27.3,29.7-36.9,36.9c-29,21.8-63.9,35.4-98,38.3C-145.3,437.4-151.7,437.7-157.7,437.4
			L-157.7,437.4z M-159.4,408.2c1.1-0.2,2.8-0.2,3.7,0c0.9,0.2,0,0.3-2.1,0.3C-159.8,408.5-160.5,408.4-159.4,408.2L-159.4,408.2z
			 M-150.8,408.2c0.9-0.2,2.4-0.2,3.4,0c0.9,0.2,0.2,0.3-1.7,0.3C-150.9,408.5-151.7,408.4-150.8,408.2z M-173.5,395.6
			c-21.1-3.4-40.9-11.9-59-25.7c-26.1-19.7-45.6-47.6-55.4-79.3c-5.9-19-7.8-31.2-7.7-49.9c0.1-26.7,5.4-48.5,17.6-72.9
			c7.4-14.7,16.3-26.7,28.7-38.6c29.4-28.3,67.6-41.9,108.8-38.5c24.8,2,42.9,8,61.6,20.3c10.2,6.7,24.2,20.5,30.5,30
			c4.3,6.5,11.7,20.7,11.1,21.3c-1,0.9-32.3,20.1-32.5,19.9c-0.1-0.1-1.9-3.4-3.8-7.3c-4.9-9.6-10.9-17.4-18.3-24
			c-7.5-6.6-12.3-9.7-21.5-14.1c-16.4-7.8-40.1-10.4-59.7-6.7c-40.2,7.7-72.1,43.7-79.8,90.1c-1.6,9.9-2.2,29.7-1.1,38
			c3.3,25,14.4,49.5,30.6,67.5c7.7,8.5,11.9,12.2,20.1,17.5c17.1,11.1,31.5,15.5,51,15.5c15.4,0,29.1-3,42-9.2
			c18.2-8.8,31.7-21.8,41.6-40.1c1.8-3.3,3.3-6.1,3.4-6.2c0.2-0.2,33.3,16.9,34,17.5c0.6,0.6-6.3,14.7-10.2,20.6
			c-4.8,7.4-17,19.9-26.1,26.7c-20,15.1-41.9,24.1-67.5,27.7C-144.4,396.9-165.2,396.9-173.5,395.6L-173.5,395.6z M-265.8,364.3
			l-2.2-2.4l2.4,2.2c2.3,2.1,2.8,2.7,2.2,2.7C-263.4,366.7-264.5,365.6-265.8,364.3z M-274.4,355.7l-1.8-2.1l2.1,1.8
			c1.9,1.7,2.4,2.3,1.8,2.3C-272.5,357.7-273.4,356.8-274.4,355.7z M288.9,356.9c-11.8-1-23.6-5.3-33.3-12.2
			c-5.7-4.1-14.1-12.8-18.1-18.9c-3.5-5.3-8.1-15.6-9.7-21.9c-4.2-16.3-2.5-35.9,4.4-50.9c7-15.1,17.8-26.1,32.8-33.3
			c8.7-4.2,15.8-5.9,26.2-6.5c26.6-1.4,48.3,10,60.2,31.5c1.6,2.8,2.5,5.4,2.2,5.7c-0.8,0.7-22.8,7.8-23.1,7.4
			c-0.1-0.1-1.1-1.8-2.3-3.6c-11.7-19.2-38.1-24.1-57.6-10.8c-6,4.1-10.9,9.8-14.4,16.8c-4.1,8.2-5.2,13.3-5.1,24.7
			c0,8.9,0.3,10.9,2,16.1c6.5,19.6,23.5,33.4,41.4,33.4c14.4,0,31.6-9.6,34.8-19.4c0.6-1.8,1.3-3.4,1.6-3.5c0.3-0.2,5.7,1.2,11.9,3
			c6.3,1.9,11.5,3.4,11.7,3.4c1.5,0-2.3,8.6-6.4,14.5c-3,4.4-11.5,12-16.6,15C318.8,355,304.5,358.2,288.9,356.9L288.9,356.9z
			 M497,357c-24.4-2.1-45.1-16.8-56.2-39.7c-5.6-11.7-6.7-16.9-6.8-32.2c0-14.4,0.8-18.9,5.6-30.1c8.2-19.2,25.6-34.2,45.9-39.7
			c7-1.9,20.9-2.6,28.4-1.5c33.8,5.3,58.5,35.5,58.5,71.7c0,3-0.3,6.4-0.7,7.4l-0.7,1.9h-55.6h-55.6l0.4,3.3
			c0.9,6.9,5.9,16.8,11.9,24c3.9,4.6,12.1,10,18.7,12.2c7.9,2.7,18.1,2.7,26.7,0c10.4-3.3,19-10.1,23.1-18.1
			c1.2-2.3,2.2-4.1,2.2-4.1c0.6,0,21.7,5.9,21.9,6.2c0.2,0.2-1.1,3.1-2.7,6.5c-6.5,13.5-21,24.9-37.7,29.7c-5.6,1.6-8.5,2.1-18.5,3
			C504.2,357.4,500.3,357.2,497,357L497,357z M547.3,272c-2.6-13.1-10.8-25.3-21.3-31.7c-17-10.3-39.3-7.6-53.3,6.3
			c-6.7,6.7-10.6,14.3-13.1,25.7l-0.5,2.1h44.3h44.3L547.3,272z M630.5,356.9c-17.8-1.4-36.9-9-48.2-19.2l-4-3.6l6-8.8l6-8.8
			l6.4,4.8c15.4,11.6,31.4,16.4,48.5,14.5c8.4-0.9,13.6-2.8,17.7-6.4c4.4-3.7,6.3-7.8,6.3-13.4c0.1-10.7-5.2-14-35.2-21.7
			c-31.9-8.2-40.6-12.8-45.9-24.4c-2.3-4.9-3.1-15.9-1.7-22.7c2.5-12,10.5-21.8,22.4-27.8c9.8-4.9,15.9-6.1,30.5-6.1
			c13.2,0,18.6,1,28.9,5.1c6.6,2.7,16.4,9,20.5,13.1l2.8,2.9l-6.6,7.9l-6.6,7.9l-4.5-4.1c-8.9-8-21.2-12.3-35.3-12.3
			c-13.7,0-21.7,3.2-26.3,10.5c-2,3.1-2.2,4.1-2.2,9.7v6.2l3,2.8c3.9,3.6,8.2,5.2,26.9,9.9c27.2,6.9,36.4,10.6,44.2,17.9
			c6.6,6.2,8.9,11.4,9.3,21c0.5,12.2-2.3,20.7-9.5,28.6C672.8,353.1,654.3,358.7,630.5,356.9L630.5,356.9z M394.7,355.2
			c-10.2-3-16.5-9.4-19.2-19.6c-0.8-3-1-20.2-1-88.7l0-84.9h12.4h12.4l0.2,82.1c0.2,81.7,0.2,82.1,1.8,84.2c2.6,3.6,6,4.9,11.5,4.4
			c2.7-0.2,7-1.1,9.6-2c2.6-0.9,4.9-1.5,5.1-1.3c0.2,0.2,1.2,4.3,2.2,9.3c1.1,4.9,2.1,9.5,2.3,10.2
			C433.1,353.1,404.2,358,394.7,355.2L394.7,355.2z M96.9,285v-69.8h12.4h12.4V285v69.8h-12.4H96.9V285z M152.4,285v-69.8h12h12
			v10.6v10.6l3.4-3.8c9.8-10.9,25.1-18.1,38.4-18.1c8.1,0,7.6-0.7,7.6,12.1c0,6.1-0.3,11.2-0.6,11.2c-0.3,0-3.5,0.3-7,0.7
			c-18.5,1.9-32.7,11.8-39.6,27.3c-1.6,3.6-1.6,4.3-1.6,46.3v42.7h-12.4h-12.4V285z M-336.5,304.9c-3.5-10.5-6.1-21.5-8.1-34.2
			c-1-6.6-1.3-12.9-1.3-27c0-16.7,0.2-19.5,2.1-30.3c3.7-21.3,7.9-34.4,16.9-53.3c10.2-21.4,21.8-37.2,40.6-55.6
			c13.6-13.4,29.6-24.5,47.5-33.2c20-9.7,32.8-13.9,54.8-17.7c10.9-1.9,13.6-2.1,30.3-2.1c19.1,0,26.7,0.7,42.4,4.2
			c27,5.9,55.8,19.5,78,37c12.1,9.5,25.6,23.5,36.1,37.6c3.4,4.5,12.7,19.3,15,23.7c0.1,0.2-0.9,1-2.2,1.8s-2.1,1.1-1.8,0.8
			c1.2-1.3-9.6-18.5-19.5-30.8c-7.5-9.4-23.9-25.3-33.5-32.5c-54.1-40.7-126-49.4-188.3-22.8c-14.1,6-29.8,15.3-42.3,24.9
			c-9,6.9-27.2,25.4-33.8,34.3c-35.7,47.7-47.4,107.3-32.3,164c1.2,4.7,3.1,10.8,4.2,13.7c1.8,4.9,1.9,5.2,0.6,6.2
			c-0.7,0.6-1.6,1-1.8,1C-333.2,314.2-334.8,310-336.5,304.9L-336.5,304.9z M-317,264.3c0-0.9,0.2-1.1,0.5-0.5
			c0.2,0.5,0.2,1.2-0.1,1.4C-316.9,265.5-317.1,265.1-317,264.3z M-317.8,256.8c0-0.9,0.2-1.1,0.5-0.5c0.2,0.5,0.2,1.2-0.1,1.4
			C-317.6,258-317.8,257.6-317.8,256.8L-317.8,256.8z M-371.8,253c0-0.9,0.2-1.1,0.5-0.5c0.2,0.5,0.2,1.2-0.1,1.4
			C-371.6,254.3-371.8,253.8-371.8,253z M10.9,248.2c0-1.9,0.1-2.6,0.3-1.7c0.2,0.9,0.2,2.4,0,3.4C11,250.8,10.9,250.1,10.9,248.2z
			 M10.9,239.6c0-2.1,0.2-2.8,0.3-1.7c0.2,1.1,0.2,2.8,0,3.8C11,242.6,10.9,241.7,10.9,239.6L10.9,239.6z M-317.7,231
			c0-1,0.2-1.5,0.4-0.9c0.2,0.5,0.2,1.4,0,1.9C-317.5,232.4-317.7,232-317.7,231z M97.1,178.7l0.2-16.3l12.2-0.2l12.2-0.2v16.5V195
			h-12.4H96.9L97.1,178.7z M-27.7,138.2c-0.9-1.2-0.9-1.2,0.3-0.3c0.7,0.6,1.3,1.2,1.3,1.3C-26.1,139.8-26.7,139.4-27.7,138.2
			L-27.7,138.2z M-33.6,131.4l-1.8-2.1l2.1,1.8c1.9,1.7,2.4,2.3,1.8,2.3C-31.7,133.5-32.6,132.5-33.6,131.4z M-270.2,127.5
			c0.7-0.8,1.5-1.5,1.7-1.5c0.2,0-0.2,0.7-1,1.5c-0.7,0.8-1.5,1.5-1.7,1.5C-271.4,129-271,128.3-270.2,127.5z M-41.5,123.5l-2.2-2.4
			l2.4,2.2c1.3,1.2,2.4,2.3,2.4,2.4C-38.8,126.3-39.4,125.8-41.5,123.5z M-133.5,80.5c0.5-0.2,1.2-0.2,1.4,0.1
			c0.2,0.2-0.2,0.4-1,0.4C-133.9,80.9-134.1,80.7-133.5,80.5z M-167.3,79.7c0.5-0.2,1.4-0.2,1.9,0c0.5,0.2,0.1,0.4-0.9,0.4
			C-167.4,80.1-167.8,79.9-167.3,79.7z M-141.8,79.7c0.5-0.2,1.4-0.2,1.9,0c0.5,0.2,0.1,0.4-0.9,0.4
			C-141.9,80.1-142.3,79.9-141.8,79.7L-141.8,79.7z M-162,25.7c0.5-0.2,1.2-0.2,1.4,0.1c0.2,0.2-0.2,0.4-1,0.4
			C-162.4,26.1-162.6,25.9-162,25.7L-162,25.7z"/>
		<path id="path104" inkscape:connector-curvature="0" class="st5" d="M-173.5,395.6c-21.1-3.4-40.9-11.9-59-25.7
			c-26.1-19.7-45.6-47.6-55.4-79.3c-5.9-19-7.8-31.2-7.7-49.9c0.1-26.7,5.4-48.5,17.6-72.9c7.4-14.7,16.3-26.7,28.7-38.6
			c29.4-28.3,67.6-41.9,108.8-38.5c24.8,2,42.9,8,61.6,20.3c10.2,6.7,24.2,20.5,30.5,30c4.3,6.5,11.7,20.7,11.1,21.3
			c-1,0.9-32.3,20.1-32.5,19.9c-0.1-0.1-1.9-3.4-3.8-7.3c-4.9-9.6-10.9-17.4-18.3-24c-7.5-6.6-12.3-9.7-21.5-14.1
			c-16.4-7.8-40.1-10.4-59.7-6.7c-40.2,7.7-72.1,43.7-79.8,90.1c-1.6,9.9-2.2,29.7-1.1,38c3.3,25,14.4,49.5,30.6,67.5
			c7.7,8.5,11.9,12.2,20.1,17.5c17.1,11.1,31.5,15.5,51,15.5c15.4,0,29.1-3,42-9.2c18.2-8.8,31.7-21.8,41.6-40.1
			c1.8-3.3,3.3-6.1,3.4-6.2c0.2-0.2,33.3,16.9,34,17.5c0.6,0.6-6.3,14.7-10.2,20.6c-4.8,7.4-17,19.9-26.1,26.7
			c-20,15.1-41.9,24.1-67.5,27.7C-144.4,396.9-165.2,396.9-173.5,395.6L-173.5,395.6z M288.9,356.9c-11.8-1-23.6-5.3-33.3-12.2
			c-5.7-4.1-14.1-12.8-18.1-18.9c-3.5-5.3-8.1-15.6-9.7-21.9c-4.2-16.3-2.5-35.9,4.4-50.9c7-15.1,17.8-26.1,32.8-33.3
			c8.7-4.2,15.8-5.9,26.2-6.5c26.6-1.4,48.3,10,60.2,31.5c1.6,2.8,2.5,5.4,2.2,5.7c-0.8,0.7-22.8,7.8-23.1,7.4
			c-0.1-0.1-1.1-1.8-2.3-3.6c-11.7-19.2-38.1-24.1-57.6-10.8c-6,4.1-10.9,9.8-14.4,16.8c-4.1,8.2-5.2,13.3-5.1,24.7
			c0,8.9,0.3,10.9,2,16.1c6.5,19.6,23.5,33.4,41.4,33.4c14.4,0,31.6-9.6,34.8-19.4c0.6-1.8,1.3-3.4,1.6-3.5c0.3-0.2,5.7,1.2,11.9,3
			c6.3,1.9,11.5,3.4,11.7,3.4c1.5,0-2.3,8.6-6.4,14.5c-3,4.4-11.5,12-16.6,15C318.8,355,304.5,358.2,288.9,356.9L288.9,356.9z
			 M497,357c-24.4-2.1-45.1-16.8-56.2-39.7c-5.6-11.7-6.7-16.9-6.8-32.2c0-14.4,0.8-18.9,5.6-30.1c8.2-19.2,25.6-34.2,45.9-39.7
			c7-1.9,20.9-2.6,28.4-1.5c33.8,5.3,58.5,35.5,58.5,71.7c0,3-0.3,6.4-0.7,7.4l-0.7,1.9h-55.6h-55.6l0.4,3.3
			c0.9,6.9,5.9,16.8,11.9,24c3.9,4.6,12.1,10,18.7,12.2c7.9,2.7,18.1,2.7,26.7,0c10.4-3.3,19-10.1,23.1-18.1
			c1.2-2.3,2.2-4.1,2.2-4.1c0.6,0,21.7,5.9,21.9,6.2c0.2,0.2-1.1,3.1-2.7,6.5c-6.5,13.5-21,24.9-37.7,29.7c-5.6,1.6-8.5,2.1-18.5,3
			C504.2,357.4,500.3,357.2,497,357L497,357z M547.3,272c-2.6-13.1-10.8-25.3-21.3-31.7c-17-10.3-39.3-7.6-53.3,6.3
			c-6.7,6.7-10.6,14.3-13.1,25.7l-0.5,2.1h44.3h44.3L547.3,272z M630.5,356.9c-17.8-1.4-36.9-9-48.2-19.2l-4-3.6l6-8.8l6-8.8
			l6.4,4.8c15.4,11.6,31.4,16.4,48.5,14.5c8.4-0.9,13.6-2.8,17.7-6.4c4.4-3.7,6.3-7.8,6.3-13.4c0.1-10.7-5.2-14-35.2-21.7
			c-31.9-8.2-40.6-12.8-45.9-24.4c-2.3-4.9-3.1-15.9-1.7-22.7c2.5-12,10.5-21.8,22.4-27.8c9.8-4.9,15.9-6.1,30.5-6.1
			c13.2,0,18.6,1,28.9,5.1c6.6,2.7,16.4,9,20.5,13.1l2.8,2.9l-6.6,7.9l-6.6,7.9l-4.5-4.1c-8.9-8-21.2-12.3-35.3-12.3
			c-13.7,0-21.7,3.2-26.3,10.5c-2,3.1-2.2,4.1-2.2,9.7v6.2l3,2.8c3.9,3.6,8.2,5.2,26.9,9.9c27.2,6.9,36.4,10.6,44.2,17.9
			c6.6,6.2,8.9,11.4,9.3,21c0.5,12.2-2.3,20.7-9.5,28.6C672.8,353.1,654.3,358.7,630.5,356.9L630.5,356.9z M394.7,355.2
			c-10.2-3-16.5-9.4-19.2-19.6c-0.8-3-1-20.2-1-88.7l0-84.9h12.4h12.4l0.2,82.1c0.2,81.7,0.2,82.1,1.8,84.2c2.6,3.6,6,4.9,11.5,4.4
			c2.7-0.2,7-1.1,9.6-2c2.6-0.9,4.9-1.5,5.1-1.3c0.2,0.2,1.2,4.3,2.2,9.3c1.1,4.9,2.1,9.5,2.3,10.2
			C433.1,353.1,404.2,358,394.7,355.2L394.7,355.2z M96.9,285v-69.8h12.4h12.4V285v69.8h-12.4H96.9V285z M152.4,285v-69.8h12h12
			v10.6v10.6l3.4-3.8c9.8-10.9,25.1-18.1,38.4-18.1c8.1,0,7.6-0.7,7.6,12.1c0,6.1-0.3,11.2-0.6,11.2c-0.3,0-3.5,0.3-7,0.7
			c-18.5,1.9-32.7,11.8-39.6,27.3c-1.6,3.6-1.6,4.3-1.6,46.3v42.7h-12.4h-12.4V285z M97.1,178.7l0.2-16.3l12.2-0.2l12.2-0.2v16.5
			V195h-12.4H96.9L97.1,178.7z"/>
		<path id="path102" inkscape:connector-curvature="0" class="st6" d="M-171.6,395.6c-16.5-2.3-31.1-7.4-46.3-16.3
			c-31.9-18.7-55.9-48.7-68.6-85.6c-6.4-18.8-8.9-33.3-8.9-52.1c0-26.6,5.3-48.6,17.5-73.1c19.8-39.6,56.5-67.5,99.9-75.8
			c8.2-1.6,35.3-2.2,44.2-1.1C-107,94.9-86,104-67.2,120.1c9.9,8.5,18.3,19.4,26.1,33.9c3.3,6.2,3.8,7.5,3,8.3
			c-1.6,1.4-30.4,19.2-31.2,19.2c-0.4,0-1.8-2.3-3.1-5.1c-6.1-12.4-18.1-26.4-28.6-33.3c-15.4-10.1-32.4-14.9-52.9-14.9
			c-16.6,0-27.5,2.4-40.6,8.7c-11.1,5.4-19.8,11.7-28.2,20.5c-16.5,17.3-26.7,38.9-30.9,65.7c-1.4,8.6-1.6,28.7-0.4,36.8
			c4.1,28,17.4,54.3,36.8,72.5c23.9,22.5,53.1,31,84.8,24.5c9.9-2,15.3-3.8,22.8-7.6c18.7-9.4,31.4-21.8,41.3-40.2
			c1.6-3,3.2-5.4,3.5-5.4c1.5,0,32.8,16.8,32.8,17.6c0,1.4-4.7,11.4-7.7,16.4c-13.6,22.5-41.7,43-71.4,52.3
			C-130.8,396.1-153,398.1-171.6,395.6L-171.6,395.6z M285.5,356.5c-7.8-1.5-10.5-2.3-15.6-4.2c-19.3-7.4-35-25.1-41.5-46.8
			c-2.8-9.4-3.4-26-1.2-36.3c5.7-27.3,24.7-47.7,50.8-54.1c8.1-2,23.1-2.3,31.5-0.7c12.7,2.5,24.1,8.8,32.8,18
			c4.2,4.4,10,13,11.5,16.8c0.3,0.9-2,1.9-10.6,4.6c-6,1.9-11.4,3.6-11.9,3.8c-0.5,0.2-1.8-1.3-2.9-3.3
			c-5.3-9.5-15.7-16.3-27.7-18.2c-20.7-3.2-40.6,9.7-47.7,31.1c-1.8,5.5-2,7.1-2,17.3c0,10.4,0.1,11.7,2.1,17.2
			c2.9,8.2,7.8,15.9,13.8,21.4c13.3,12.1,31,14.6,47.4,6.5c6.4-3.1,13.6-10.1,15.4-15c0.7-2,1.7-3.5,2.2-3.3
			c0.5,0.2,5.8,1.8,11.9,3.6c6.1,1.8,11.1,3.7,11.1,4.1c0,0.5-1.4,3.7-3.1,7.1c-2.4,4.8-4.5,7.6-9.2,12.3
			c-12.5,12.4-28.3,18.6-47.1,18.4C290.9,356.8,286.4,356.7,285.5,356.5L285.5,356.5z M490.8,356.1c-22.4-3.7-42.8-20.8-51.8-43.4
			c-4-10.1-5-15.7-4.9-28.5c0.1-14.9,2-22.8,8.7-35.2c14.8-27.6,46.8-41.6,77.5-33.8c8,2,19.9,8,26.1,13.2
			c12.1,10,21.2,25.9,24.5,42.6c1,5,1.4,20.5,0.6,22.4c-0.5,1.2-3.9,1.3-56.4,1.3h-55.9l0.5,2.4c3.4,17.7,15.8,32.1,32.5,37.8
			c5.5,1.9,17.3,1.9,23.6,0c11-3.3,20.7-10.6,24.9-18.7l2.1-4l10.4,2.8c5.7,1.6,10.6,3,10.8,3.3c0.6,0.6-2,6.2-5.5,11.7
			c-8,12.5-23.4,22.2-41.1,25.8C511.2,357.1,497.5,357.2,490.8,356.1L490.8,356.1z M547.7,272.9c0-0.9-0.8-4-1.8-7
			c-4.2-12.5-12.5-22.3-23.2-27.4c-7.2-3.4-12-4.6-19.5-4.6c-11.6,0-22.3,4.4-30.6,12.7c-6.9,6.9-11.3,15.4-13,25l-0.5,2.8h44.3
			h44.3V272.9z M626.8,356.5c-16.9-2.5-31.3-8.5-42.8-17.6l-5.6-4.4l5.8-8.6c3.2-4.7,6.1-8.6,6.4-8.6c0.3,0,2.7,1.7,5.4,3.7
			c6.8,5.1,14.1,9.4,20.2,11.6c20.6,7.7,45.3,3.8,51.5-8.3c2.5-4.9,2.7-12.6,0.3-15.8c-4-5.4-11.8-8.7-34.7-14.5
			c-16.3-4.1-23.4-6.4-30.4-9.9c-12.8-6.4-17.7-15.3-16.8-30.2c0.9-13.7,6.5-23.8,17.4-31.1c20.2-13.6,54.7-12.8,76.2,1.7
			c4.4,3,11.1,8.9,11.1,9.9c0,0.4-2.8,4.1-6.3,8.3l-6.3,7.6l-2.5-2.7c-11.1-11.7-34.3-17.5-50.7-12.6c-9.5,2.8-15.2,9.9-15.2,18.7
			c0,10.2,3.8,12.7,29.2,19.2c29.9,7.7,38.4,11.2,46.2,19c6.7,6.7,8.2,10.9,8.1,22.6c0,7.6-0.3,9.7-1.8,13.5
			c-5.1,13.1-15.1,21.5-31.3,26.3c-5.8,1.7-8.2,2-19,2.2C634.6,356.7,628,356.7,626.8,356.5L626.8,356.5z M395.1,355.1
			c-8.1-2-14.7-7.4-17.7-14.1c-2.8-6.4-2.9-10.9-3-95.5l0-82.7h12.4h12.4v80.6c0,87.4-0.2,83.4,4.1,87.4c1.9,1.7,2.6,1.9,8.5,1.8
			c4.6-0.1,7.8-0.6,10.9-1.7c2.4-0.9,4.5-1.5,4.6-1.4c0.1,0.1,1.1,4.8,2.4,10.5l2.2,10.3l-3,1.2C419,355.3,403,357.1,395.1,355.1
			L395.1,355.1z M96.9,285v-69.8h12.4h12.4V285v69.8h-12.4H96.9V285z M152.4,285v-69.8H164h11.6l0,11.1l0,11.1l5.2-5.4
			c11.3-11.8,27.9-18.8,41.1-17.1l4,0.5v11.1v11.1l-7.3,0.8c-9.1,1-15.7,3.1-21.8,6.7c-8,4.8-13.9,11.5-17.8,19.9l-1.8,3.9l0,42.9
			l0,42.9h-12.4h-12.4L152.4,285L152.4,285z M96.9,178.8v-16.1h12.4h12.4v16.1V195h-12.4H96.9V178.8z"/>
	</g>
</g>
</svg>
